<?xml version="1.0" standalone="no"?>
<!DOCTYPE svg PUBLIC "-//W3C//DTD SVG 20010904//EN"
 "http://www.w3.org/TR/2001/REC-SVG-20010904/DTD/svg10.dtd">
<svg version="1.0" xmlns="http://www.w3.org/2000/svg"
 width="512.000000pt" height="512.000000pt" viewBox="0 0 512.000000 512.000000"
 preserveAspectRatio="xMidYMid meet">
<metadata>
Created by potrace 1.14, written by Peter Selinger 2001-2017
</metadata>
<g transform="translate(0.000000,512.000000) scale(0.100000,-0.100000)"
fill="#000000" stroke="none">
<path d="M1708 5115 c-1 -1 -19 -5 -38 -8 -46 -6 -77 -25 -93 -59 -33 -69 27
-153 98 -138 6 1 55 3 110 5 195 6 357 -54 498 -186 91 -85 179 -119 296 -115
92 3 179 41 256 112 151 139 305 197 500 189 147 -5 266 -47 377 -132 127 -97
219 -236 254 -384 14 -56 16 -206 4 -277 -45 -283 -243 -630 -535 -941 -67
-72 -221 -221 -270 -262 -22 -19 -47 -40 -55 -48 -37 -36 -263 -198 -337 -241
-102 -61 -187 -100 -216 -100 -64 0 -345 175 -533 331 -358 297 -647 654 -785
969 -72 163 -102 296 -98 435 6 194 7 185 -26 211 -53 42 -135 21 -154 -41
-45 -146 -24 -366 55 -587 143 -400 533 -882 999 -1235 208 -157 462 -293 549
-293 28 0 158 51 236 93 55 30 301 190 323 211 7 6 32 27 57 46 172 133 407
368 560 560 206 259 339 506 407 755 25 90 27 116 27 265 0 153 -2 171 -28
250 -93 285 -335 521 -601 586 -155 39 -327 40 -460 5 -120 -32 -251 -101
-346 -183 -44 -38 -96 -76 -114 -84 -72 -30 -136 -12 -218 62 -169 152 -348
223 -574 229 -66 2 -123 2 -125 0z"/>
<path d="M1248 4892 c-15 -2 -39 -17 -53 -33 -62 -75 -1 -179 93 -158 126 28
88 208 -40 191z"/>
<path d="M2354 4401 c-49 -22 -99 -81 -111 -130 -5 -20 -8 -78 -8 -128 0 -51
-2 -93 -5 -94 -3 -1 -52 -2 -110 -4 -115 -3 -140 -9 -189 -51 -61 -51 -71 -88
-71 -274 0 -140 3 -171 19 -205 42 -91 112 -123 264 -120 48 1 87 -1 88 -4 0
-3 2 -51 3 -106 3 -119 15 -161 59 -203 56 -54 89 -62 265 -62 175 0 211 7
259 53 52 49 65 88 68 206 2 58 4 108 4 112 1 3 41 4 90 4 152 -3 220 29 262
120 16 34 19 66 19 205 0 152 -2 169 -22 210 -25 48 -80 97 -119 106 -13 3
-67 7 -119 9 -52 1 -100 3 -105 4 -7 1 -10 36 -10 94 2 149 -29 216 -120 258
-59 27 -351 27 -411 0z m331 -336 c2 -220 4 -222 233 -220 l143 0 -3 -125 -3
-125 -146 0 c-220 -1 -223 -4 -224 -226 l0 -150 -125 3 -125 3 0 147 c-1 219
-4 222 -223 222 l-147 1 -3 125 -3 125 147 0 c224 -1 228 3 229 226 l0 150
125 -3 124 -3 1 -150z"/>
<path d="M217 3448 c-130 -23 -228 -152 -214 -283 8 -75 519 -1356 632 -1585
37 -72 105 -186 135 -224 70 -88 170 -193 363 -382 l225 -221 -29 -119 c-17
-65 -32 -126 -34 -135 -2 -8 -17 -73 -35 -144 -33 -137 -34 -178 -4 -241 20
-43 77 -91 124 -105 23 -7 193 -9 485 -7 436 3 451 4 496 24 26 12 61 37 79
55 37 39 83 129 101 200 7 27 15 49 18 49 3 0 14 -27 24 -61 40 -137 98 -213
190 -248 49 -18 81 -19 499 -20 489 -2 482 -2 550 58 24 21 41 48 53 88 17 54
17 61 2 133 -24 106 -23 99 -66 276 -22 87 -41 168 -43 179 -2 16 53 76 226
245 383 376 430 442 597 840 38 91 74 174 79 185 5 11 59 146 120 300 61 154
115 289 120 300 4 11 52 130 106 265 78 197 98 257 100 304 7 151 -108 276
-254 277 -85 0 -133 -17 -199 -74 -24 -21 -93 -116 -106 -147 -3 -8 -84 -150
-180 -315 -118 -203 -179 -299 -188 -296 -106 31 -186 23 -258 -24 -28 -19
-111 -121 -267 -329 -229 -304 -304 -389 -449 -504 -256 -204 -391 -335 -496
-479 -55 -75 -149 -254 -149 -282 0 -6 -4 -11 -10 -11 -5 0 -10 6 -10 13 0 7
-20 54 -44 104 -99 204 -232 353 -531 598 -88 72 -184 153 -215 182 -31 28
-157 186 -281 350 -123 164 -235 310 -249 324 -62 66 -195 98 -272 66 -28 -12
-39 -13 -46 -4 -5 7 -96 164 -203 351 -107 186 -211 358 -232 382 -64 73 -163
108 -260 92z m140 -267 c16 -25 119 -201 228 -391 187 -325 198 -348 200 -400
3 -81 11 -110 77 -275 88 -220 242 -528 279 -559 40 -34 88 -34 127 -1 54 45
51 61 -57 275 -97 194 -215 477 -224 537 -6 37 15 73 43 73 41 0 69 -28 180
-177 63 -86 120 -161 125 -167 6 -6 54 -70 108 -142 121 -164 184 -226 418
-414 391 -315 536 -541 543 -850 1 -58 -1 -121 -5 -140 -4 -19 -10 -48 -12
-65 -6 -41 -45 -178 -62 -219 -28 -67 -14 -65 -477 -66 l-418 0 5 22 c3 13 34
142 71 288 43 174 63 275 59 295 -4 23 -79 103 -303 325 -384 380 -406 413
-607 905 -42 105 -83 204 -90 220 -42 98 -359 904 -363 922 -6 30 21 71 50 75
34 6 72 -19 105 -71z m4548 46 c8 -12 15 -29 15 -38 0 -13 -108 -296 -151
-394 -5 -11 -52 -130 -105 -265 -105 -267 -224 -560 -255 -626 -10 -24 -19
-46 -19 -49 0 -21 -138 -288 -181 -352 -37 -54 -145 -169 -351 -373 -224 -222
-299 -302 -303 -325 -4 -20 18 -125 64 -310 38 -153 67 -283 65 -287 -3 -4
-192 -8 -421 -8 l-415 0 -28 30 c-15 16 -30 40 -33 52 -3 13 -15 55 -26 93
-12 39 -24 86 -27 105 -3 19 -9 53 -13 75 -10 57 -6 210 9 280 20 98 69 212
130 304 87 129 194 234 459 450 99 80 184 155 224 197 23 24 141 176 262 338
139 186 230 298 247 306 37 16 61 9 76 -22 11 -24 9 -37 -13 -103 -44 -132
-115 -294 -210 -481 -103 -201 -107 -224 -53 -269 36 -31 86 -33 121 -4 46 36
195 334 299 599 52 130 60 162 63 240 2 52 14 76 215 425 117 204 219 379 226
389 36 53 100 64 129 23z"/>
</g>
</svg>
